<svg xmlns="http://www.w3.org/2000/svg" width="1024" height="704" viewBox="0 0 1024 704"><style>text{font-family:Arial,sans-serif;fill:#F4F0FB}.m{fill:#AAA2B8}.v{fill:#D8C3FF}.i{fill:#0B0814}.g{fill:#F3C969}.s{fill:#161123;stroke:#403452;stroke-width:2}.r{fill:#231A35}</style><rect width="1024" height="704" fill="#0B0814"/><rect width="1024" height="98" fill="#161123"/><text x="28" y="39" font-size="25">SURE<tspan fill="#9B5CF6">THING.</tspan></text><text x="996" y="35" font-size="14" text-anchor="end">R2/5 · LIVE BOARD</text><text class="g" x="996" y="62" font-size="15" text-anchor="end">BANK $120 · DUE $30</text><text class="v" x="300" y="75" font-size="14">LOBBY</text><text class="v" x="28" y="130" font-size="14">‹ TODAY'S BOARD</text><text x="28" y="166" font-size="22">NIGHTHAWKS @ SAINTS</text><text class="m" x="28" y="188" font-size="13">AWAY 12–8 · HOME 15–5 · working ticket retained</text><g transform="translate(28 210)"><rect x="0" width="96" height="42" rx="5" fill="#9B5CF6"/><text class="i" x="48" y="26" font-size="13" text-anchor="middle">GOALS</text><rect class="r" x="104" width="82" height="42" rx="5"/><text class="v" x="145" y="26" font-size="13" text-anchor="middle">BTTS</text><rect class="r" x="194" width="100" height="42" rx="5"/><text class="v" x="244" y="26" font-size="13" text-anchor="middle">CORNERS</text><rect class="r" x="302" width="82" height="42" rx="5"/><text class="v" x="343" y="26" font-size="13" text-anchor="middle">CARDS</text><rect class="r" x="392" width="92" height="42" rx="5"/><text class="v" x="438" y="26" font-size="13" text-anchor="middle">PLAYERS</text></g><text class="v" x="28" y="288" font-size="16">TOTAL GOALS</text><rect class="s" x="28" y="302" width="620" height="52" rx="6"/><text x="44" y="334" font-size="16">OVER 2.5</text><text class="v" x="620" y="334" font-size="16" text-anchor="end">+110</text><rect class="s" x="28" y="365" width="620" height="52" rx="6"/><text x="44" y="397" font-size="16">UNDER 2.5</text><text class="v" x="620" y="397" font-size="16" text-anchor="end">−130</text><rect x="672" y="116" width="324" height="530" rx="8" fill="#161123" stroke="#9B5CF6" stroke-width="2"/><text class="v" x="692" y="150" font-size="16">WORKING SLIP · 2</text><text x="692" y="188" font-size="14">NIGHTHAWKS ML +135</text><text x="692" y="222" font-size="14">HARBOR FC OVER 2.5 +110</text><text class="m" x="692" y="464" font-size="13">COMBINED ODDS</text><text x="976" y="464" font-size="16" text-anchor="end">+394</text><text class="m" x="692" y="496" font-size="13">STAKE · 10% 25% 50% MAX</text><text x="976" y="496" font-size="16" text-anchor="end">$20</text><text class="m" x="692" y="528" font-size="13">POTENTIAL PAYOUT</text><text class="g" x="976" y="528" font-size="16" text-anchor="end">$99</text><rect x="692" y="574" width="284" height="38" rx="5" fill="#9B5CF6"/><text class="i" x="834" y="598" font-size="14" text-anchor="middle">PLACE TICKET</text></svg>
