<svg xmlns="http://www.w3.org/2000/svg" width="1024" height="704" viewBox="0 0 1024 704"><style>text{font-family:Arial;fill:#F4F0FB}.m{fill:#AAA2B8}.v{fill:#D8C3FF}.i{fill:#0B0814}.g{fill:#F3C969}</style><rect width="1024" height="704" fill="#0B0814"/><rect width="1024" height="98" fill="#161123"/><text x="28" y="38" font-size="25">SURE<tspan fill="#9B5CF6">THING.</tspan></text><text x="996" y="35" text-anchor="end" font-size="14">R2/5 · LIVE BOARD</text><text x="996" y="62" text-anchor="end" class="g" font-size="15">BANK $100 · DUE $30 · COMPS 1.5</text><text x="300" y="75" class="v" font-size="14">LOBBY</text><text x="402" y="75" class="m" font-size="14">MY BETS</text><text x="28" y="142" class="v" font-size="19">TICKET STAGED · RECEIPT #01</text><text x="28" y="170" class="m" font-size="13">the house has recorded your optimism</text><rect x="28" y="195" width="620" height="190" rx="8" fill="#161123" stroke="#403452"/><text x="48" y="230" class="v" font-size="16">2 LEGS · COMBINED +394</text><text x="48" y="270" font-size="16">NIGHTHAWKS ML +135</text><text x="48" y="305" font-size="16">HARBOR FC OVER 2.5 +110</text><text x="48" y="350" class="m" font-size="13">STAKE $20</text><text x="620" y="350" text-anchor="end" class="g" font-size="16">POTENTIAL PAYOUT $99</text><rect x="672" y="116" width="324" height="530" rx="8" fill="#161123" stroke="#9B5CF6"/><text x="692" y="150" class="v" font-size="16">STAGED TICKETS · 1</text><text x="692" y="190" font-size="14">#01 · 2 LEGS · $20</text><text x="692" y="230" class="m" font-size="13">WORKING SLIP · 0 · STAKE $10</text><text x="692" y="260" class="m" font-size="13">Combined odds — · payout $0</text><rect x="692" y="500" width="284" height="42" rx="5" fill="#9B5CF6"/><text x="834" y="527" text-anchor="middle" class="i" font-size="14">LOCK IT IN</text><rect x="692" y="550" width="284" height="42" rx="5" fill="#231A35" stroke="#D8C3FF"/><text x="834" y="577" text-anchor="middle" class="v" font-size="14">ADD ANOTHER TICKET</text></svg>
